<svg xmlns="http://www.w3.org/2000/svg" viewBox="0 0 256 256" role="img" aria-label="Sugeng Hartono University logo">
  <rect width="256" height="256" rx="42" fill="#fff"/>
  <circle cx="128" cy="128" r="112" fill="#1F355F"/>
  <circle cx="128" cy="128" r="82" fill="#fff"/>
  <circle cx="128" cy="128" r="72" fill="#D6B51F"/>
  <path fill="#1F355F" d="M57 126h142v4H57zM67 94h122v4H67zM67 158h122v4H67z"/>
  <path fill="none" stroke="#1F355F" stroke-width="4" d="M128 56c-24 18-38 43-38 72s14 54 38 72c24-18 38-43 38-72s-14-54-38-72Z"/>
  <path fill="none" stroke="#1F355F" stroke-width="4" d="M128 56v144M76 128h104"/>
  <path fill="#1F355F" d="M122 71c16 12 31 28 41 48l-27 2-14 19 22 29c-12 3-26 5-42 3l-20-28 18-25-12-17 25-4 9-27Z" opacity=".9"/>
  <text x="128" y="86" fill="#fff" font-family="Georgia, serif" font-size="20" font-weight="700" text-anchor="middle" letter-spacing="5">UNIVERSITAS</text>
  <text x="128" y="213" fill="#fff" font-family="Georgia, serif" font-size="17" font-weight="700" text-anchor="middle" letter-spacing="3">SUGENG HARTONO</text>
  <text x="128" y="148" fill="#fff" stroke="#1F355F" stroke-width="2" paint-order="stroke" font-family="Georgia, serif" font-size="48" font-weight="900" text-anchor="middle">USH</text>
  <path fill="#D6B51F" d="M42 118c13-15 21-30 22-48 13 14 16 33 7 52-9 17-23 25-29 27 5-10 5-21 0-31Zm172 0c-13-15-21-30-22-48-13 14-16 33-7 52 9 17 23 25 29 27-5-10-5-21 0-31Z"/>
</svg>
