<svg xmlns="http://www.w3.org/2000/svg" viewBox="0 0 256 256" role="img" aria-label="Coinversity logo">
  <defs>
    <linearGradient id="coinversity-c" x1="70" y1="64" x2="184" y2="190" gradientUnits="userSpaceOnUse">
      <stop stop-color="#00A86B"/>
      <stop offset=".55" stop-color="#8CD000"/>
      <stop offset="1" stop-color="#FFD34D"/>
    </linearGradient>
    <radialGradient id="coinversity-bg" cx="50%" cy="35%" r="70%">
      <stop stop-color="#64748B"/>
      <stop offset="1" stop-color="#293746"/>
    </radialGradient>
  </defs>
  <rect width="256" height="256" rx="42" fill="url(#coinversity-bg)"/>
  <g opacity=".15" fill="none" stroke="#F8FAFC" stroke-width="5">
    <circle cx="54" cy="58" r="31"/>
    <circle cx="196" cy="63" r="34"/>
    <circle cx="50" cy="196" r="36"/>
    <circle cx="203" cy="196" r="30"/>
    <circle cx="128" cy="35" r="25"/>
  </g>
  <path fill="url(#coinversity-c)" d="M154 73c-38-21-86 5-86 55 0 48 46 77 86 56l-16-29c-23 11-42-2-42-27 0-26 21-38 42-27l16-28Z"/>
  <path fill="url(#coinversity-c)" d="M147 62h70v20h-70z"/>
  <path fill="url(#coinversity-c)" d="m183 31 52 31-52 31-52-31 52-31Z"/>
  <path fill="#D8F99C" d="M212 85h14v42l-7 11-7-11V85Z"/>
</svg>
